<svg xmlns="http://www.w3.org/2000/svg" viewBox="0 0 1200 630">
    <defs>
        <linearGradient id="thumb-bg" x1="0" y1="0" x2="1" y2="1">
            <stop offset="0%" stop-color="#4c7d7f"/>
            <stop offset="100%" stop-color="#1c2b2e"/>
        </linearGradient>
    </defs>
    <rect width="1200" height="630" fill="url(#thumb-bg)"/>

    <image href="../images/alvarovn.png" x="80" y="70" width="96" height="96" style="border-radius: 16px;"/>
    <rect x="80" y="70" width="96" height="96" rx="16" fill="none" stroke="#f5f2ea" stroke-width="2"/>

    <text x="196" y="112" font-family="Montserrat, Arial, sans-serif" font-size="46" font-weight="700" fill="#f5f2ea">Álvaro Vilela Nova</text>
    <text x="196" y="152" font-family="Arial, sans-serif" font-size="28" fill="#cfe3e4">ML Engineer</text>

    <text x="80" y="260" font-family="Montserrat, Arial, sans-serif" font-size="34" font-weight="600" fill="#f5f2ea">Agentic RAG systems. LLM evaluation.</text>
    <text x="80" y="304" font-family="Montserrat, Arial, sans-serif" font-size="34" font-weight="600" fill="#f5f2ea">Deployment infrastructure.</text>

    <line x1="80" y1="360" x2="1120" y2="360" stroke="#cfe3e4" stroke-width="1" opacity="0.4"/>

    <g>
        <circle cx="130" cy="450" r="46" fill="#f5f2ea"/>
        <image href="../logos/python_logo.png" x="98" y="418" width="64" height="64"/>
    </g>
    <g>
        <circle cx="290" cy="450" r="46" fill="#f5f2ea"/>
        <image href="../logos/langgraph_logo.svg" x="262" y="422" width="56" height="56"/>
    </g>
    <g>
        <circle cx="450" cy="450" r="46" fill="#f5f2ea"/>
        <image href="../logos/elasticsearch_logo.svg" x="418" y="418" width="64" height="64"/>
    </g>
    <g>
        <circle cx="610" cy="450" r="46" fill="#f5f2ea"/>
        <image href="../logos/aws_logo.svg" x="586" y="426" width="48" height="48"/>
    </g>
    <g>
        <circle cx="770" cy="450" r="46" fill="#f5f2ea"/>
        <image href="../logos/docker_logo.svg" x="738" y="418" width="64" height="64"/>
    </g>
    <g>
        <circle cx="930" cy="450" r="46" fill="#f5f2ea"/>
        <image href="../logos/fastapi_logo.svg" x="898" y="418" width="64" height="64"/>
    </g>

    <text x="80" y="570" font-family="Arial, sans-serif" font-size="24" fill="#a9d0d1">alv4rovn.github.io</text>
</svg>
